# xmcd
#
# Track frame offsets:
#	150
#	20310
#	35334
#	54378
#	67110
#	79336
#	95207
#	114038
#	131227
#	145707
#	170064
#	186985
#	200414
#	216189
#	233959
#	259197
#	284130
#	301057
#
# Disc length: 4276 seconds
#
# Revision: 1
# Processed by: cddbd v1.5.2PL0 Copyright (c) Steve Scherf et al.
# Submitted via: audiograbber 1.83.01
#
DISCID=1110b212
DTITLE=Various Artist - Sin City Social Club Vol.13
DYEAR=2010
DGENRE=Americana
TTITLE0=Peter Wolf w Shelby Lynne - Tragedy
TTITLE1=Shooter Jennings and Hierophant - California Via Tennessee
TTITLE2=Shurman - Is It True
TTITLE3=Tift Merritt - Engine To Turn
TTITLE4=Elizabeth Cook - El Camino
TTITLE5=Austin Collins and The Rainbirds - Conventional Lust
TTITLE6=Ruby James - The Predictable Kind
TTITLE7=Kelly Dalton - Forgotten
TTITLE8=Jon Dee Graham - Beautiful Broken
TTITLE9=The Mighty Stef feat. Cait O'Riordan - Safe At Home
TTITLE10=Charlie Terrell and The Murdered Johns - Straight Shooter On A Crooked R
TTITLE10=oad
TTITLE11=Deadman - Don't Do This To Me
TTITLE12=Anne McCue - Don't Go To Texas (Without Me)
TTITLE13=29 Mules - Devle Stole My Last $10
TTITLE14=Tori Sparks w Shawn Mullins - Letter To A Wretch #2
TTITLE15=Citizen Band - Broken Man
TTITLE16=Colin Gilmore - Circles In The Yard
TTITLE17=Roky Erickson w Okkervil River - Goodbye Sweet Dreams
EXTD=
EXTT0=
EXTT1=
EXTT2=
EXTT3=
EXTT4=
EXTT5=
EXTT6=
EXTT7=
EXTT8=
EXTT9=
EXTT10=
EXTT11=
EXTT12=
EXTT13=
EXTT14=
EXTT15=
EXTT16=
EXTT17=
PLAYORDER=
